HIERARCHY
ROOT Hips
{
	OFFSET -0.001795 -0.223333 0.028219
	CHANNELS 6 Xposition Yposition Zposition Zrotation Yrotation Xrotation 
	JOINT LeftUpLeg
	{
		OFFSET 0.069520 -0.091406 -0.006815
		CHANNELS 3 Zrotation Yrotation Xrotation
		JOINT LeftLeg
		{
			OFFSET 0.034277 -0.375199 -0.004496
			CHANNELS 3 Zrotation Yrotation Xrotation
			JOINT LeftFoot
			{
				OFFSET -0.013596 -0.397961 -0.043693
				CHANNELS 3 Zrotation Yrotation Xrotation
				JOINT LeftToe
				{
					OFFSET 0.026358 -0.055791 0.119288
					CHANNELS 3 Zrotation Yrotation Xrotation
					End Site
					{
						OFFSET 0.000000 0.000000 0.000000
					}
				}
			}
		}
	}
	JOINT RightUpLeg
	{
		OFFSET -0.067670 -0.090522 -0.004320
		CHANNELS 3 Zrotation Yrotation Xrotation
		JOINT RightLeg
		{
			OFFSET -0.038290 -0.382569 -0.008850
			CHANNELS 3 Zrotation Yrotation Xrotation
			JOINT RightFoot
			{
				OFFSET 0.015774 -0.398415 -0.042312
				CHANNELS 3 Zrotation Yrotation Xrotation
				JOINT RightToe
				{
					OFFSET -0.025372 -0.048144 0.123348
					CHANNELS 3 Zrotation Yrotation Xrotation
					End Site
					{
						OFFSET 0.000000 0.000000 0.000000
					}
				}
			}
		}
	}
	JOINT Spine
	{
		OFFSET -0.002533 0.108963 -0.026696
		CHANNELS 3 Zrotation Yrotation Xrotation
		JOINT Spine1
		{
			OFFSET 0.005487 0.135180 0.001092
			CHANNELS 3 Zrotation Yrotation Xrotation
			JOINT Spine2
			{
				OFFSET 0.001457 0.052922 0.025425
				CHANNELS 3 Zrotation Yrotation Xrotation
				JOINT Neck
				{
					OFFSET -0.002778 0.213870 -0.042857
					CHANNELS 3 Zrotation Yrotation Xrotation
					JOINT Head
					{
						OFFSET 0.005152 0.064970 0.051349
						CHANNELS 3 Zrotation Yrotation Xrotation
						End Site
						{
							OFFSET 0.000000 0.000000 0.000000
						}
					}
				}
				JOINT LeftShoulder
				{
					OFFSET 0.078845 0.121749 -0.034090
					CHANNELS 3 Zrotation Yrotation Xrotation
					JOINT LeftArm
					{
						OFFSET 0.090977 0.030469 -0.008868
						CHANNELS 3 Zrotation Yrotation Xrotation
						JOINT LeftForeArm
						{
							OFFSET 0.259612 -0.012772 -0.027456
							CHANNELS 3 Zrotation Yrotation Xrotation
							JOINT LeftHand
							{
								OFFSET 0.249234 0.008986 -0.001171
								CHANNELS 3 Zrotation Yrotation Xrotation
								End Site
								{
									OFFSET 0.000000 0.000000 0.000000
								}
							}
						}
					}
				}
				JOINT RightShoulder
				{
					OFFSET -0.081759 0.118833 -0.038615
					CHANNELS 3 Zrotation Yrotation Xrotation
					JOINT RightArm
					{
						OFFSET -0.096012 0.032551 -0.009143
						CHANNELS 3 Zrotation Yrotation Xrotation
						JOINT RightForeArm
						{
							OFFSET -0.253742 -0.013329 -0.021401
							CHANNELS 3 Zrotation Yrotation Xrotation
							JOINT RightHand
							{
								OFFSET -0.255298 0.007772 -0.005559
								CHANNELS 3 Zrotation Yrotation Xrotation
								End Site
								{
									OFFSET 0.000000 0.000000 0.000000
								}
							}
						}
					}
				}
			}
		}
	}
}
MOTION
Frames: 10
Frame Time: 0.050000
-0.018339 0.955005 0.101009 -0.847069 -2.372859 2.063295 2.839842 0.223150 3.757655 -1.680250 0.246056 -2.890771 5.178138 12.374328 9.123774 0.000000 0.000000 0.000000 -2.996239 0.270041 -2.356725 0.678948 0.005059 2.095806 0.498552 -4.255682 11.716887 0.000000 0.000000 0.000000 -3.152327 0.156919 -6.595550 5.062358 -0.971690 -19.593057 -0.058013 4.207536 26.917616 4.255748 0.429820 -34.257119 0.000000 0.000000 0.000000 -25.632823 -7.199667 1.870347 -29.723643 -29.035898 1.462077 69.854957 -65.971231 -44.937906 0.000000 0.000000 0.000000 5.574302 22.608778 9.008008 20.846991 39.611575 2.255280 -69.676440 18.873259 -9.511596 0.000000 0.000000 0.000000 
-0.024322 0.955495 0.106688 -0.638647 -1.783254 2.315691 2.804879 0.177671 3.181084 -1.547741 0.225201 -2.533564 4.505513 11.345669 9.561768 0.000000 0.000000 0.000000 -2.971876 0.220266 -1.700494 1.407671 -0.095009 1.698833 -0.295881 -5.722943 11.799721 0.000000 0.000000 0.000000 -2.801406 0.164776 -6.405644 4.321263 -0.747431 -19.665462 0.193017 5.591689 26.782539 4.203996 0.764143 -34.736936 0.000000 0.000000 0.000000 -25.970302 -7.510577 1.370141 -31.140666 -27.722377 1.518470 64.675015 -68.604511 -43.363705 0.000000 0.000000 0.000000 5.303238 22.556988 9.112816 18.231508 39.574683 1.683860 -64.481962 15.567210 -6.434959 0.000000 0.000000 0.000000 
-0.029440 0.955500 0.111384 -0.279749 -1.055123 2.302813 2.724475 0.136037 2.610818 -1.457809 0.205588 -2.082532 4.037318 10.524448 9.104728 0.000000 0.000000 0.000000 -2.885561 0.170966 -1.107109 1.534413 -0.106601 1.928188 -0.979853 -6.860478 11.572829 0.000000 0.000000 0.000000 -2.800393 0.151058 -6.034868 3.969564 -0.623179 -19.831630 0.351657 6.906016 27.021135 4.746488 0.793264 -34.963311 0.000000 0.000000 0.000000 -26.314880 -7.557837 0.694767 -32.328423 -25.669676 1.326710 62.365769 -71.075711 -43.843206 0.000000 0.000000 0.000000 5.340326 22.630700 9.333238 15.571575 39.582804 1.090872 -59.909093 13.795991 -4.785337 0.000000 0.000000 0.000000 
-0.033822 0.956105 0.114984 0.044235 0.132968 2.480401 2.610570 0.093966 2.074029 -1.352727 0.195066 -2.187611 3.223771 9.344546 9.611791 0.000000 0.000000 0.000000 -2.949005 0.118552 -0.452746 2.033405 -0.184553 1.388065 -1.969751 -8.733266 12.125416 0.000000 0.000000 0.000000 -2.924126 0.139404 -6.117292 3.346932 -0.440805 -19.491633 0.774464 7.561493 27.091484 4.469463 1.184584 -35.594954 0.000000 0.000000 0.000000 -26.640965 -7.360900 -0.028652 -33.058362 -24.377325 1.241560 60.078060 -73.129748 -43.895481 0.000000 0.000000 0.000000 4.743493 23.244237 9.565447 13.463389 39.240824 0.643478 -55.729705 11.465961 -3.183853 0.000000 0.000000 0.000000 
-0.037744 0.956068 0.117567 0.269420 1.420834 2.795991 2.610049 0.036933 1.378920 -1.278381 0.179135 -1.915989 2.784035 8.657162 9.393326 0.000000 0.000000 0.000000 -2.791543 0.085855 -0.136449 2.073879 -0.208746 0.757918 -2.546074 -9.720438 12.439642 0.000000 0.000000 0.000000 -2.818645 0.132558 -5.881147 3.092896 -0.326701 -19.768934 1.065890 8.602855 27.589497 4.699499 1.392986 -36.050636 0.000000 0.000000 0.000000 -26.799593 -7.983141 -0.419117 -33.503612 -22.317837 0.961228 64.915665 -74.674767 -49.744106 0.000000 0.000000 0.000000 4.770949 23.720159 9.960006 11.088236 38.585432 0.100080 -52.864480 9.975715 -2.216732 0.000000 0.000000 0.000000 
-0.040990 0.956436 0.119238 0.477538 2.948386 3.200251 2.953666 -0.040014 0.545213 -1.173915 0.158452 -1.586065 2.146597 7.807029 9.725553 0.000000 0.000000 0.000000 -2.440906 0.057856 0.042287 2.246064 -0.244412 0.330169 -3.455058 -11.239039 12.505847 0.000000 0.000000 0.000000 -2.782748 0.124455 -5.796093 2.645577 -0.168197 -19.724458 1.330190 9.290287 27.779816 4.936561 1.550876 -36.249310 0.000000 0.000000 0.000000 -26.703052 -8.237517 -0.958236 -34.283755 -20.535248 0.758484 73.597042 -76.397475 -59.448779 0.000000 0.000000 0.000000 3.754138 24.639912 10.181092 8.787141 37.444502 -0.340507 -49.753567 7.554730 -0.992999 0.000000 0.000000 0.000000 
-0.043790 0.956487 0.120340 0.793620 4.797309 3.722050 2.998605 -0.117586 -0.459222 -1.059870 0.125271 -0.824941 1.549656 6.761494 9.059513 0.000000 0.000000 0.000000 -2.320605 0.066338 -0.159111 2.453479 -0.284464 -0.042282 -4.240689 -12.543296 13.030866 0.000000 0.000000 0.000000 -2.816255 0.111761 -5.602052 2.246588 -0.001161 -20.034008 1.477807 9.872382 28.150510 4.715345 1.953796 -36.773929 0.000000 0.000000 0.000000 -26.561975 -8.843232 -1.327539 -34.795290 -18.493325 0.468783 88.951794 -77.876851 -75.930986 0.000000 0.000000 0.000000 2.400343 25.719837 10.318203 6.070271 35.779861 -0.798687 -46.613930 5.072333 0.077483 0.000000 0.000000 0.000000 
-0.046113 0.956801 0.121144 1.211922 6.483886 4.282468 3.004729 -0.183841 -1.339512 -0.812288 0.092483 -0.562829 0.732932 5.673109 9.449528 0.000000 0.000000 0.000000 -2.139198 0.059890 -0.169859 2.509287 -0.305878 -0.405050 -5.398111 -14.488538 13.097353 0.000000 0.000000 0.000000 -2.881532 0.097783 -5.036562 1.906020 0.154714 -20.615719 1.410437 10.929980 28.154449 5.021737 2.139215 -36.796603 0.000000 0.000000 0.000000 -26.860415 -8.820677 -2.355117 -35.414153 -16.217831 0.200497 101.469404 -79.209582 -90.548082 0.000000 0.000000 0.000000 1.270415 26.540483 10.420954 2.784247 33.989922 -1.252108 -43.133962 2.749611 0.919755 0.000000 0.000000 0.000000 
-0.048444 0.956965 0.121851 1.711315 8.660418 4.727679 2.823360 -0.255492 -2.365251 -0.784768 0.071026 -0.044706 0.006225 4.745025 9.656488 0.000000 0.000000 0.000000 -2.190987 0.063513 -0.281550 2.728059 -0.346746 -0.563002 -6.249304 -15.823669 13.384629 0.000000 0.000000 0.000000 -2.981650 0.081970 -4.277766 1.281699 0.383914 -21.120328 1.168875 11.752765 28.009726 5.527695 2.270046 -37.183031 0.000000 0.000000 0.000000 -26.663071 -8.602357 -3.466702 -36.531201 -13.414076 -0.227344 119.297617 -81.089482 -112.042310 0.000000 0.000000 0.000000 -1.278584 27.190803 9.866791 -0.270385 31.556175 -1.455433 -38.295598 0.615844 1.518152 0.000000 0.000000 0.000000 
-0.050725 0.957197 0.122627 2.125252 10.894540 4.692812 2.976769 -0.285643 -2.659394 -0.797352 0.064182 0.075966 -1.074279 3.317850 10.015009 0.000000 0.000000 0.000000 -1.940416 -0.022090 0.537509 2.433091 -0.331877 -1.123807 -7.220937 -17.364015 14.072812 0.000000 0.000000 0.000000 -2.983653 0.066200 -2.896783 0.748757 0.584993 -21.972090 0.955993 12.974189 27.980259 6.116246 2.394114 -36.848416 0.000000 0.000000 0.000000 -27.270488 -8.043498 -5.233256 -37.036000 -10.234793 -0.670750 136.234860 -84.487300 -134.160334 0.000000 0.000000 0.000000 -4.393848 27.381366 8.832844 -3.087998 27.845183 -1.388756 -32.564077 0.191554 1.450692 0.000000 0.000000 0.000000 
